<svg width="264" height="226" viewBox="0 0 264 226" fill="none" xmlns="http://www.w3.org/2000/svg">
<path fill-rule="evenodd" clip-rule="evenodd" d="M18.6388 108.201C18.6388 108.201 7.43524 99.4913 23.1531 69.419C38.8709 39.3467 70.7024 45.938 91.049 34.1094C121.112 16.6322 108.79 2.955 146.276 0.750359C193.474 -2.02545 196.147 42.8318 219.76 42.8318C221.313 42.8318 258.084 29.3858 263.466 66.1951C266.177 84.7325 219.76 113.001 219.76 113.001C219.76 113.001 200.442 128.937 199.381 136.805C194.932 169.807 204.21 207.604 100.234 225.005C86.7863 227.256 64.4572 219.115 52.1384 204.078C42.4874 192.298 3.77348 200.656 0.159645 161.925C-1.6618 142.404 18.6388 108.201 18.6388 108.201Z" fill="#81B29A"/>
<path d="M87.9939 82.0358C88.3445 81.8475 88.7965 81.9536 89.0034 82.2727L89.838 83.554C93.1518 88.6138 94.4773 90.2568 95.8861 90.9996C97.044 91.6101 98.2411 91.4207 100.433 90.251L100.725 90.0911C102.104 89.3093 108.411 85.3665 110.849 83.9508C111.192 83.7515 111.648 83.8432 111.867 84.1556C112.086 84.4679 111.985 84.8827 111.642 85.082L111.267 85.3018C108.549 86.9049 102.445 90.7202 101.364 91.3083C98.7111 92.752 96.9909 93.0765 95.2672 92.2221L95.147 92.1606C93.295 91.1841 91.8545 89.3108 87.7336 82.9545C87.5267 82.6354 87.6432 82.2241 87.9939 82.0358Z" fill="white"/>
<path d="M99.9326 89.7906C100.336 89.7415 100.707 89.9993 100.761 90.3665C101.012 92.0731 101.614 93.7844 102.568 95.5022C102.752 95.8329 102.606 96.2365 102.243 96.4037C101.88 96.5709 101.436 96.4385 101.253 96.1078C100.225 94.2593 99.5733 92.4043 99.2997 90.5446C99.2457 90.1773 99.529 89.8398 99.9326 89.7906Z" fill="white"/>
<path fill-rule="evenodd" clip-rule="evenodd" d="M185.816 130.767C185.697 131.041 185.437 131.42 185.134 131.779L185.395 132.026L185.697 132.319L185.765 132.377C185.794 132.401 185.817 132.416 185.834 132.419C185.932 132.432 186 132.514 185.986 132.604C185.972 132.692 185.883 132.755 185.785 132.742C185.696 132.74 185.374 132.626 184.991 132.342C184.922 132.291 184.852 132.232 184.782 132.167C184.561 132.392 184.338 132.584 184.144 132.704C183.86 132.883 183.614 132.897 183.497 132.825C183.381 132.754 183.271 132.518 183.459 132.04C183.488 131.954 183.589 131.909 183.683 131.936C183.777 131.963 183.828 132.054 183.799 132.14C183.77 132.228 183.766 132.309 183.766 132.374L183.875 132.307C183.914 132.281 183.953 132.253 183.989 132.22C184.121 132.102 184.268 131.959 184.416 131.803C184.182 131.556 183.943 131.265 183.75 130.93C183.656 130.767 183.581 130.593 183.51 130.41C183.461 130.309 183.512 130.189 183.624 130.144C183.736 130.099 183.868 130.145 183.917 130.247C184.132 130.657 184.406 131.01 184.677 131.312L184.767 131.411C185.014 131.117 185.226 130.82 185.322 130.593C185.376 130.47 185.529 130.408 185.665 130.455C185.802 130.505 185.87 130.644 185.816 130.767Z" fill="white"/>
<path fill-rule="evenodd" clip-rule="evenodd" d="M76.125 46.131L75.6756 46.057C73.1664 45.6325 71.2425 45.1113 67.6486 43.9773C67.2364 43.8473 67.0181 43.4378 67.161 43.0627C67.3039 42.6876 67.7539 42.489 68.166 42.619L69.0617 42.8996C72.2144 43.8787 73.9834 44.3276 76.3993 44.7153C84.5285 46.0197 90.6151 42.2216 91.1131 34.9779C91.1404 34.5817 91.5154 34.2806 91.9508 34.3054C92.3861 34.3301 92.717 34.6714 92.6898 35.0676C92.1297 43.2143 85.1378 47.5773 76.125 46.131Z" fill="#00160A"/>
<path fill-rule="evenodd" clip-rule="evenodd" d="M96.4375 53.8885L96.891 54.8058L97.925 55.0758C97.9809 55.0904 98.0132 55.1435 97.9972 55.1944C97.9922 55.2101 97.983 55.2244 97.9702 55.2359L97.1847 55.9476L97.2287 56.9718C97.231 57.0247 97.1857 57.0693 97.1276 57.0713C97.1079 57.072 97.0884 57.0677 97.0713 57.0589L96.182 56.5979C96.1542 56.5835 96.1207 56.5814 96.091 56.5921L95.1398 56.9359C95.0857 56.9555 95.0245 56.9314 95.003 56.8822C94.9958 56.8656 94.9938 56.8474 94.9973 56.8298L95.1975 55.8211L94.5284 55.0169C94.4933 54.9747 94.5024 54.9145 94.5488 54.8826C94.5631 54.8727 94.5799 54.8664 94.5977 54.8641L95.6629 54.7276L96.2523 53.8767C96.2834 53.8319 96.3484 53.8185 96.3976 53.8467C96.4151 53.8568 96.429 53.8713 96.4375 53.8885Z" fill="#00160A"/>
<path d="M200.337 30.8336C200.743 30.8072 201.096 31.0855 201.125 31.4551C201.154 31.8246 200.848 32.1456 200.442 32.172C197.533 32.3609 195.248 33.3867 194.233 35.9245C194.172 36.0773 194.122 36.2247 194.08 36.3648L194.053 36.4611L194.098 36.3766C195.375 34.002 197.84 32.3521 200.696 31.9334L200.883 31.9078C201.286 31.8566 201.659 32.1126 201.715 32.4795C201.771 32.8465 201.49 33.1855 201.087 33.2367C198.434 33.5738 196.164 35.1786 195.174 37.4804L195.11 37.6349C194.639 38.8113 193.51 39.3755 192.783 38.3686C192.339 37.7546 192.369 36.6639 192.848 35.4656C194.063 32.426 196.853 31.0598 200.337 30.8336Z" fill="white"/>
<path d="M196.979 25.8355C197.385 25.8092 197.738 26.0874 197.767 26.457C197.796 26.8266 197.49 27.1475 197.084 27.1739C192.456 27.4743 188.399 30.2092 186.784 34.2461C186.306 35.4427 186.217 36.4659 186.388 36.984L186.409 37.0418L186.442 36.999C186.524 36.8854 186.617 36.7222 186.707 36.5106L186.746 36.417C188.452 32.1529 192.586 29.1667 197.436 28.5507C197.839 28.4995 198.212 28.7554 198.268 29.1224C198.324 29.4894 198.043 29.8284 197.64 29.8796C193.397 30.4185 189.771 32.9952 188.209 36.6872L188.132 36.8759C187.499 38.4571 186.132 39.1402 185.258 37.9294C184.658 37.0997 184.7 35.5334 185.399 33.7872C187.214 29.2485 191.777 26.1733 196.979 25.8355Z" fill="white"/>
<path d="M192.454 19.1714C192.86 19.145 193.213 19.4232 193.242 19.7928C193.271 20.1624 192.965 20.4834 192.559 20.5097C185.959 20.9382 180.171 24.839 177.869 30.5967C177.085 32.5562 177.02 34.2169 177.448 34.9073L177.487 34.9657C177.55 35.0534 177.529 35.056 177.545 35.0439L177.555 35.038C177.772 34.9297 178.058 34.5607 178.32 33.9486L178.371 33.823C180.723 27.9422 186.426 23.8239 193.114 22.9743C193.518 22.9231 193.89 23.179 193.946 23.546C194.003 23.913 193.721 24.252 193.318 24.3032C187.245 25.0747 182.057 28.7745 179.843 34.072L179.757 34.2819C178.939 36.3277 177.298 37.1474 176.254 35.7025C175.477 34.6253 175.533 32.513 176.483 30.1378C178.987 23.8782 185.279 19.6372 192.454 19.1714Z" fill="white"/>
<path d="M184.376 12.9083C184.775 12.837 185.162 13.0741 185.241 13.4377C185.319 13.8013 185.058 14.1538 184.659 14.225C178.684 15.2899 173.879 19.4431 172.485 24.9366C172.014 26.7958 172.156 28.3075 172.619 28.8842L172.681 28.9565L172.685 28.9666L172.694 28.9605C172.86 28.8244 173.054 28.4767 173.204 27.9376L173.235 27.8192C174.669 22.1693 179.402 17.7959 185.447 16.3272C185.841 16.2316 186.245 16.4444 186.35 16.8024C186.455 17.1603 186.221 17.528 185.828 17.6236C180.381 18.9468 176.102 22.8493 174.728 27.9067L174.672 28.121C174.166 30.1137 172.715 31.0649 171.539 29.8036C170.679 28.881 170.468 26.9234 171.049 24.6347C172.574 18.6209 177.835 14.074 184.376 12.9083Z" fill="white"/>
<path d="M102.656 95.6502L103.082 95.5092C107.104 94.1957 110.497 93.6161 111.359 94.4143C112.115 95.1143 112.789 96.382 113.428 98.2413C113.549 98.5949 113.333 98.9712 112.944 99.0818C112.556 99.1923 112.142 98.9952 112.021 98.6416C111.468 97.0336 110.905 95.9514 110.372 95.4164L110.35 95.3954L110.331 95.3964C110.23 95.3776 110.078 95.3681 109.886 95.3715C109.461 95.379 108.88 95.4472 108.187 95.5722C106.76 95.8295 104.957 96.3079 103.166 96.909C100.172 97.9141 97.6778 99.0951 96.3 100.162C95.7941 100.554 94.8705 99.4626 95.7593 98.8376C97.3584 97.7131 99.7839 96.6143 102.656 95.6502Z" fill="white"/>
<path d="M100.632 82.9761C100.632 85.2138 103.232 87.6368 103.786 87.7747C104.178 87.8725 97.4126 91.8843 97.4126 91.8843C94.9679 92.177 93.5324 90.2965 93.5324 87.4951C93.5324 87.1246 100.632 82.6056 100.632 82.9761Z" fill="white"/>
<path fill-rule="evenodd" clip-rule="evenodd" d="M92.654 84.1521C93.5104 84.0006 94.0923 83.3513 93.9535 82.7018C93.8148 82.0523 93.0081 81.6486 92.1517 81.8001C91.2953 81.9516 90.7134 82.6009 90.8522 83.2504C90.9909 83.8999 91.7976 84.3036 92.654 84.1521Z" fill="#FFB61D"/>
<path d="M179.916 9.18798C180.317 9.1244 180.699 9.36877 180.769 9.73379C180.839 10.0988 180.57 10.4463 180.169 10.5098C178.262 10.8122 176.338 11.8631 174.355 13.5345C171.779 15.7048 170.078 18.7038 169.14 22.7023C168.384 25.9238 169.082 29.9491 171.057 33.4878C173.304 37.5138 177.28 38.5088 181.915 39.2793C186.674 40.0703 187.989 39.5818 192.485 38.1271L192.899 37.9903C193.514 37.7784 196.387 36.7553 197.078 36.5652C198.532 36.1651 199.523 36.1986 200.242 36.8959C200.521 37.1661 200.506 37.5907 200.209 37.8442C199.931 38.0819 199.503 38.0849 199.222 37.8618L199.167 37.8141C198.955 37.6084 198.516 37.5846 197.634 37.8149L197.505 37.8495C196.84 38.0324 193.724 39.1453 193.321 39.2793C188.464 40.8927 186.817 41.4581 181.65 40.5993C176.53 39.7482 172.187 38.4742 169.742 34.0955C167.618 30.2901 166.87 25.9529 167.698 22.4222C168.699 18.1546 170.553 14.9092 173.353 12.55C175.544 10.7031 177.728 9.53488 179.916 9.18798Z" fill="white"/>
<path d="M214.597 62.5706C210.394 62.3751 207.084 65.3289 207.05 69.2941C207.021 72.6349 209.088 75.3859 211.929 75.9189C213.078 76.1344 215.283 75.8752 216.918 75.0403C219.402 73.8281 221.301 71.3359 221.541 69.2125C221.931 65.7529 218.853 62.7687 214.597 62.5706Z" fill="#E07A5F"/>
<path d="M138.443 61.872C139.785 64.3393 141.869 70.0384 140.968 70.011C138.463 69.9348 135.113 66.4321 132.769 61.6961L132.584 61.3152C130.538 57.0153 129.313 54.3138 130.736 53.7964C132.207 53.2611 135.672 56.7796 138.443 61.872Z" fill="white"/>
<path fill-rule="evenodd" clip-rule="evenodd" d="M130.736 53.7426C132.207 53.2073 135.723 56.5651 138.493 61.6575C139.836 64.1248 140.746 66.4917 140.984 68.1891C140.984 68.1891 136.451 59.496 133.686 56.3119C132.623 55.0888 130.736 53.7426 130.736 53.7426Z" fill="#EEEDED"/>
<path d="M129.963 75.6356C130.071 75.2784 130.477 75.0684 130.87 75.1667C131.262 75.2649 131.493 75.6342 131.385 75.9915C131.246 76.451 129.293 77.6564 125.033 80.0466L122.343 81.5444C117.034 84.4857 113.492 86.3678 113.049 86.3678C110.117 86.3678 107.476 83.8512 105.548 79.8804C103.864 76.4133 102.99 72.2863 103.384 69.5818C103.508 68.7377 106.598 66.5526 111.369 63.625L112.053 63.2082C116.274 60.649 119.882 58.7509 121.188 58.5112C121.587 58.4379 121.976 58.673 122.056 59.0362C122.107 59.2634 110.471 68.1891 109.334 74.1133C108.565 78.1245 111.474 84.9613 112.918 85.0232L113.049 85.026C112.931 85.026 112.969 85.0011 112.983 84.994L113.116 84.9316C113.214 84.8849 113.33 84.8278 113.464 84.7609L114.077 84.4487C114.312 84.3277 114.573 84.1913 114.859 84.041L115.591 83.6543C116.988 82.9121 118.731 81.9672 120.508 80.9883L122.199 80.0528C124.255 78.9096 126.113 77.8556 127.509 77.037L128.228 76.6118C128.674 76.3459 129.05 76.1157 129.351 75.925L129.46 75.8553C129.626 75.7489 129.764 75.6573 129.871 75.5821C129.871 75.5821 129.993 75.5384 129.963 75.6356Z" fill="#EEEDED"/>
<path fill-rule="evenodd" clip-rule="evenodd" d="M131.425 62.2471C129.644 58.6475 128.856 55.3488 129.453 53.3514C128.375 53.6631 127.027 54.2234 125.69 54.9217C123.912 55.85 122.501 56.8876 122.468 57.1128C122.124 59.4673 123.443 64.0478 125.635 68.1314C127.98 72.4995 130.769 75.3051 132.929 75.3051C133.135 75.3051 133.727 75.1941 134.32 75.0056C135.164 74.7374 135.954 74.3467 136.601 73.8348C136.923 73.5803 137.256 73.2927 137.604 72.9716L138.024 72.5772C138.271 72.3393 138.526 72.083 138.924 71.677L139.479 71.1131L139.503 71.0893C136.725 70.1656 133.82 66.9095 131.647 62.687L131.425 62.2471ZM121.006 56.9361C121.236 55.3654 127.697 51.9702 130.646 51.7509C130.77 51.6805 130.902 51.6195 131.042 51.5683C133.596 50.6396 137.487 54.6176 140.609 60.2149L140.823 60.6035C142.232 63.1931 143.193 65.6917 143.455 67.5607C143.768 69.7942 143.057 71.2749 141.194 71.3508C141.144 71.5268 141.018 71.6739 140.85 71.7626L140.822 71.7759L140.749 71.8421C140.676 71.9104 140.59 71.9951 140.457 72.1295L139.541 73.06C139.209 73.3934 138.973 73.6195 138.654 73.9139C138.281 74.258 137.921 74.5689 137.568 74.8478C136.141 75.976 134.031 76.6469 132.929 76.6469C132.344 76.6469 131.753 76.5231 131.16 76.2869C130.528 76.8877 128.58 78.0564 125.033 80.0466L122.343 81.5444C117.034 84.4856 113.492 86.3677 113.049 86.3677C112.045 86.3677 111.075 86.0726 110.156 85.5249C110.148 85.5303 110.139 85.5356 110.13 85.5407L109.755 85.7605C108.449 86.531 106.36 87.8124 104.423 89.001L104.423 89.0012L104.423 89.0013L104.302 89.0756C104.553 90.7048 105.123 92.3384 106.015 93.9778C109.181 93.0867 111.689 92.7857 112.412 93.4559C113.168 94.1559 113.842 95.4235 114.481 97.2829C114.602 97.6365 114.386 98.0128 113.997 98.1234C113.609 98.2339 113.195 98.0368 113.074 97.6832C112.521 96.0752 111.958 94.993 111.425 94.4579L111.403 94.437L111.384 94.4379C111.283 94.4192 111.132 94.4097 110.939 94.4131C110.514 94.4206 109.933 94.4887 109.24 94.6138C107.813 94.871 106.01 95.3495 104.219 95.9506C100.126 97.3248 96.9668 99.0275 96.3175 100.318C96.1275 100.696 96.1517 101.248 96.379 102.095L96.4212 102.247C96.4553 102.367 96.4909 102.486 96.5375 102.636L96.8038 103.494C96.8148 103.531 96.8257 103.569 96.8395 103.618C96.9418 103.976 96.7053 104.343 96.3112 104.436C95.9171 104.529 95.5147 104.314 95.4124 103.955L95.2816 103.521L95.0635 102.821C95.0386 102.738 95.0161 102.661 94.994 102.584C94.6486 101.372 94.5931 100.522 94.977 99.7593C95.6279 98.4657 97.664 97.1257 100.499 95.9072L99.8827 94.4575L99.7304 94.0909C99.4969 93.5193 99.2251 92.7443 99.0585 92.1787C96.8435 93.2652 95.3008 93.4468 93.7552 92.6808L93.6349 92.6193C93.3293 92.4581 93.0348 92.2725 92.7377 92.0464L84.0976 96.8221C84.1779 96.9796 84.259 97.1384 84.341 97.2985C84.7286 98.0551 84.0449 98.5908 82.9962 99.0076L82.8831 99.0514C81.9816 99.3912 81.1682 99.4691 80.684 98.9854C78.6748 96.9785 76.5479 92.1778 77.6921 91.0799C77.9118 90.8691 78.4918 90.5551 79.5888 90.0315L79.6762 89.9902C79.6985 89.9761 79.722 89.9629 79.7465 89.9508L87.8231 85.9687C87.8416 85.9595 87.8603 85.9512 87.8793 85.9437C87.3805 85.1931 86.8337 84.3573 86.2292 83.425C86.1383 83.2914 86.104 83.1356 86.1255 82.9853C86.1398 82.8853 86.1788 82.7878 86.2423 82.701C86.2752 82.6559 86.3143 82.6141 86.3594 82.5767C88.0198 81.1435 90.2826 79.6492 93.1209 78.0401L93.465 77.846C94.6935 77.1568 97.1848 75.8637 99.3013 74.7651L99.3014 74.765L99.302 74.7648C100.943 73.9128 102.359 73.1778 102.786 72.9324L102.889 72.87C103.043 72.7673 103.227 72.7272 103.403 72.7444C103.263 71.5807 103.25 70.4994 103.384 69.5818C103.508 68.7377 106.598 66.5526 111.369 63.625L112.053 63.2082C116.052 60.7835 119.501 58.9524 120.963 58.5626C120.924 57.9619 120.937 57.4146 121.006 56.9361ZM121.124 59.9231C119.692 60.3995 116.106 62.3369 112.194 64.7376L111.567 65.1244C109.806 66.2178 108.179 67.2839 106.951 68.1528L106.609 68.3965C106.061 68.7919 105.617 69.1327 105.295 69.406C105.134 69.543 105.007 69.6603 104.917 69.7537L104.854 69.8209C104.841 69.8339 104.837 69.8289 104.842 69.7867L104.846 69.7585C104.844 69.7693 104.843 69.7787 104.842 69.7867L104.823 69.9307C104.114 75.5924 108.612 84.8388 112.918 85.0232L113.02 85.0253C113.028 85.0257 113.038 85.026 113.049 85.026L113.02 85.0253C112.938 85.0214 112.97 85.0004 112.983 84.994L113.116 84.9316C113.214 84.8849 113.33 84.8278 113.464 84.7609L114.077 84.4487C114.312 84.3277 114.573 84.1913 114.859 84.041L115.591 83.6542C116.988 82.9121 118.731 81.9671 120.508 80.9883L122.199 80.0528C124.255 78.9096 126.113 77.8555 127.509 77.037L128.228 76.6117C128.674 76.3458 129.05 76.1157 129.351 75.925L129.46 75.8553C129.619 75.7531 129.753 75.6646 129.859 75.5912C127.96 74.323 126.09 71.981 124.43 68.9409L124.311 68.7204C122.711 65.7401 121.554 62.5126 121.124 59.9231ZM103.606 74.0451C103.074 74.3498 101.505 75.1652 99.7592 76.0725C97.6903 77.1476 95.3732 78.3517 94.2388 78.9882C91.5595 80.4914 89.3987 81.8849 87.7947 83.197L88.326 84.0126C90.6508 87.5624 91.9971 89.4305 93.08 90.4858C92.7202 89.7093 92.5338 88.7238 92.5338 87.4878C92.5338 87.4309 92.5416 87.3756 92.5563 87.3228C92.4847 87.0658 92.5854 86.7836 92.8347 86.617L93.3368 86.2774C93.6377 86.0704 94.1324 85.7264 94.695 85.3351L94.6971 85.3337L94.6972 85.3336L94.6975 85.3334C95.9304 84.4759 97.4879 83.3928 98.0437 83.0305C99.792 81.8908 101.081 81.2513 102.254 81.0294C102.814 80.9233 103.25 81.2251 103.376 81.6924L103.397 81.7774C103.426 81.9165 103.431 82.0533 103.431 82.352L103.43 82.4467C103.424 83.5631 103.546 84.2074 104.065 84.9515C104.421 85.4607 104.943 85.9254 105.671 86.3415C105.747 86.3851 105.812 86.4392 105.864 86.5005C107.038 85.7829 108.138 85.1155 108.949 84.6368C107.67 83.5105 106.519 81.8798 105.548 79.8804C104.643 78.0181 103.972 75.9655 103.606 74.0451ZM141.992 67.7304C141.754 66.0331 140.844 63.6662 139.501 61.1988C136.731 56.1064 133.061 52.279 131.589 52.8143C130.166 53.3317 130.538 57.0152 132.584 61.3151L132.769 61.6961C135.113 66.4321 138.463 69.9348 140.968 70.0109C141.869 70.0384 142.222 69.3683 141.992 67.7304ZM88.641 87.078C89.9199 88.9597 90.8543 90.2029 91.6683 91.0676L83.4774 95.595C82.6385 93.9211 81.8879 92.363 81.1596 90.7801L88.5254 87.1484C88.567 87.1279 88.6056 87.1042 88.641 87.078ZM104.601 94.401C103.806 92.905 103.257 91.4049 102.955 89.9015C101.897 90.5497 100.976 91.1108 100.384 91.4609C100.485 91.9238 100.862 93.0224 101.187 93.8036L101.792 95.2209L101.849 95.3592C102.444 95.1308 103.065 94.9079 103.709 94.6918L104.135 94.5508C104.291 94.4997 104.446 94.4498 104.601 94.401ZM104.574 87.29C103.819 86.8136 103.24 86.2717 102.821 85.671C102.142 84.6986 101.964 83.8683 101.956 82.6138L101.956 82.5015L101.851 82.537C101.104 82.8011 100.212 83.2787 99.0912 83.999L98.9022 84.1213C98.3687 84.4691 96.8505 85.5249 95.6257 86.3767L95.6251 86.3771C94.944 86.8507 94.3537 87.2612 94.074 87.4518L94.0082 87.496C94.0097 89.7281 94.6219 90.7522 95.7604 91.249L95.8515 91.2872C96.123 91.3965 96.3166 91.4514 96.8699 91.5893C96.8809 91.5921 96.8918 91.595 96.9025 91.5982C97.4767 91.4225 98.1347 91.1291 98.9206 90.7097L99.2134 90.5497C99.8625 90.1816 101.605 89.1124 103.521 87.9363C103.868 87.7232 104.221 87.5066 104.574 87.29ZM79.8566 91.4219L79.9696 91.6666C80.7526 93.3562 81.5662 95.0292 82.4896 96.854L82.8487 97.562C82.731 97.634 82.5762 97.7104 82.406 97.778C82.1616 97.8752 81.9135 97.9434 81.7269 97.9662L81.6675 97.9716L81.5778 97.8737C80.8799 97.0918 80.0699 95.7633 79.4846 94.4422C79.1729 93.7386 78.9509 93.0932 78.8508 92.5973C78.81 92.3953 78.7911 92.2256 78.7928 92.0969L78.7971 92.012C78.7985 91.9914 78.7986 91.9807 78.793 91.9792L78.815 91.9656C78.9396 91.8874 79.2581 91.7179 79.731 91.4839L79.8566 91.4219ZM90.0259 89.9438C89.7408 89.6793 89.274 89.6752 88.9834 89.9347C88.4721 90.3911 87.7557 90.8161 86.5044 91.4483L85.2309 92.0915C84.8945 92.2659 84.619 92.4163 84.3695 92.5636C84.1611 92.6866 83.9748 92.8054 83.8073 92.9232C83.4852 93.1497 83.4258 93.5711 83.6748 93.8642C83.9237 94.1574 84.3867 94.2114 84.7089 93.9849C84.8418 93.8914 84.9955 93.7934 85.1719 93.6892C85.3348 93.5931 85.5138 93.4934 85.7209 93.3832L86.1269 93.1718L87.4205 92.5196C88.6633 91.8848 89.4121 91.4315 90.0158 90.8926C90.3065 90.6331 90.311 90.2083 90.0259 89.9438Z" fill="#00160A"/>
<path d="M73.536 158.073C77.2225 176.778 91.0395 190.84 108.671 194.155C111.907 194.764 117.511 194.844 123.315 194.16C130.791 193.279 138.068 191.259 144.468 187.985C162.047 179.387 175.387 161.839 177.116 146.477C178.635 132.983 172.97 120.517 162.716 111.624C162.716 111.624 130.502 126.023 114.689 134.207C100.929 141.329 73.536 158.073 73.536 158.073Z" fill="#E07A5F"/>
<path d="M148.557 102.294C141.949 99.3269 133.671 96.9833 125.553 96.6056C95.7803 95.2203 72.3646 116.865 72.1205 144.783C72.1205 144.783 105.35 125.521 122.613 116.228C131.202 111.605 148.557 102.294 148.557 102.294Z" fill="#F4F1DE"/>
<path fill-rule="evenodd" clip-rule="evenodd" d="M209.795 88.0654C209.695 92.7299 204.271 100.493 195.553 109.279C189.237 115.643 181.888 121.794 175.726 125.94L175.342 126.195L175.597 127.225C177.096 133.202 179.052 139.699 178.313 146.251C176.519 162.153 162.851 180.094 144.789 188.909C138.202 192.272 130.714 194.346 123.033 195.249L122.301 195.331C116.574 195.945 111.093 195.843 107.744 195.215C94.7445 192.776 83.7387 184.506 77.0847 172.537C77.0624 172.497 77.0449 172.456 77.0321 172.414C76.156 172.869 74.9775 173.377 74.4392 173.543L72.9646 173.997C57.0722 178.861 41.3168 182.931 34.8805 180.391C32.4303 179.424 31.5928 177.564 32.6175 175.066C33.6134 172.638 36.3745 169.509 41.007 165.615L41.2616 165.402C45.6512 161.74 55.3995 155.049 70.5062 145.327L70.5101 145.149C71.2472 116.344 95.8334 94.3849 126.738 96.1774C136.19 96.7257 143.718 99.7827 147.478 101.66L149.131 100.852C164.64 93.306 177.083 88.0014 186.577 84.8264C202.19 79.605 209.912 82.0462 209.795 88.0654ZM187.085 87.9205C169.627 93.759 142.036 106.89 103.62 128.012L102.453 128.655C72.5395 145.134 52.7316 157.654 42.2579 166.391L41.7417 166.825L41.2522 167.243C33.3898 174.003 31.9962 177.79 35.4671 179.16C41.4088 181.505 57.3649 177.552 72.9907 172.888L74.4393 172.453C75.8327 172.033 76.7569 171.792 77.3289 171.68C77.3537 171.664 77.3811 171.649 77.4097 171.636C77.6052 171.546 77.8239 171.543 78.0129 171.61C78.0538 171.617 78.0805 171.629 78.0945 171.645C78.2218 171.708 78.3301 171.805 78.4003 171.932C84.8598 183.551 95.5037 190.631 108.042 192.984C111.296 193.594 116.787 193.684 122.501 193.04L122.844 193.001C130.348 192.119 137.657 191.012 144.08 187.733C161.73 179.119 175.103 161.565 176.846 146.114C177.591 139.51 176.64 133.029 174.113 126.996C173.905 127.129 173.698 127.259 173.492 127.386C173.104 127.627 173.249 127.237 173.927 126.216C173.963 126.083 174.044 125.962 174.159 125.871L174.368 125.57C174.441 125.465 174.518 125.356 174.599 125.242L175.472 124.572C183.707 118.233 190.036 112.836 194.458 108.38L194.963 107.868C203.145 99.5354 208.231 92.1749 208.315 88.0406C208.407 83.5053 201.832 82.9888 187.085 87.9205ZM113.058 172.765C115.037 178.267 112.044 181.805 106.777 181.988C101.91 182.157 97.4776 179.366 97.7035 175.4C97.8987 171.972 100.478 168.308 103.653 166.962C107.493 165.335 111.097 167.309 113.058 172.765ZM104.431 168.482C101.89 169.559 99.7048 172.664 99.544 175.487C99.3839 178.297 102.798 180.448 106.706 180.312C110.792 180.17 112.89 177.69 111.307 173.286C109.659 168.702 107.152 167.329 104.431 168.482ZM153.274 161.554C155.798 165.894 155.138 170.158 151.257 172.069L151.148 172.121L151.092 172.172C145.888 176.862 139.386 177.431 135.147 174.031L135.001 173.913C130.118 169.841 131.281 162.847 139.052 157.364C144.053 153.835 150.162 156.201 153.274 161.554ZM140.02 158.5C132.965 163.478 131.974 169.439 136.068 172.853C139.005 175.301 143.344 175.436 147.397 173.06L147.476 173.012L147.447 173.007C147.166 172.939 146.941 172.733 146.877 172.465L146.865 172.396C146.813 172.002 147.123 171.644 147.556 171.598C148.547 171.491 149.407 171.273 150.136 170.962L150.236 170.917L150.356 170.804C150.832 170.348 151.296 169.853 151.746 169.317L151.896 169.136C152.065 168.93 152.331 168.83 152.593 168.85L152.614 168.852L152.624 168.834C153.57 167.132 153.346 164.825 151.961 162.371L151.878 162.226C149.172 157.572 144.113 155.612 140.02 158.5ZM186.998 106.911C186.592 108.224 185.356 110.025 183.462 112.158C180.161 115.876 175.201 120.205 170.866 123.164L171.827 122.202V122.202C171.818 122.194 171.81 122.184 171.803 122.172L171.471 121.617C169.301 118.013 166.884 114.459 162.978 111.561C152.867 115.354 141.274 120.54 130.712 125.963L127.25 127.744C101.755 140.887 88.3415 148.755 73.9978 158.428C74.5393 160.647 75.2214 162.812 76.0384 164.91C76.1666 165.239 74.4915 166.471 74.1849 166.319C71.3234 168.064 66.8427 169.331 64.2917 169.397C61.8056 169.461 60.3692 168.546 61.1092 166.719C61.7282 165.192 64.0599 163.013 68.2562 160.093L68.7346 159.762L69.7018 159.101C85.4946 148.341 101.129 139.609 129.988 124.794L131.195 124.177C150.988 114.123 173.909 105.064 184.408 104.228C186.565 104.057 187.544 105.143 186.998 106.911ZM72.0773 159.73L68.7684 162.002C65.8166 164.039 63.6885 165.545 62.539 166.512L62.4546 166.583C61.0515 167.781 62.6397 168.098 64.2499 168.056C66.6889 167.993 70.4254 166.31 73.5881 164.778C73.0036 163.13 72.4993 161.445 72.0773 159.73ZM123.835 152.445C124.23 152.536 124.468 152.901 124.368 153.261C124.268 153.62 123.867 153.837 123.472 153.746C121.49 153.288 120.319 153.463 119.939 153.949C119.687 154.272 119.826 154.821 120.298 155.172C120.666 155.446 121.156 155.577 121.494 155.51C121.787 155.452 121.952 155.246 121.952 154.731C121.952 154.361 122.282 154.06 122.689 154.06C123.096 154.06 123.426 154.361 123.426 154.731C123.426 155.852 122.81 156.623 121.807 156.822C121.001 156.981 120.062 156.73 119.364 156.211C118.334 155.443 117.997 154.119 118.737 153.171C119.549 152.133 121.328 151.866 123.835 152.445ZM91.452 149.982C92.589 150.292 93.0785 151.087 93.2331 152.279L93.2483 152.408L93.267 152.604C93.2697 152.637 93.2722 152.67 93.2747 152.706L93.3134 153.387L93.325 153.54C93.331 153.608 93.3375 153.663 93.3452 153.712L93.3649 153.815L93.3768 153.86L93.3974 153.876C93.6249 154.079 93.6854 154.397 93.5382 154.66L93.5006 154.719C93.2799 155.03 92.8236 155.12 92.4815 154.919C92.0106 154.643 91.9036 154.358 91.8466 153.542L91.7998 152.744C91.7944 152.672 91.7885 152.609 91.7809 152.538C91.6971 151.757 91.4878 151.393 91.0289 151.268C89.7412 150.917 89.0022 151.275 88.7682 152.058C88.5596 152.756 88.8613 153.49 89.3897 153.694L89.5235 153.739C89.8688 153.873 90.0517 154.227 89.9353 154.559C89.8117 154.912 89.3969 155.107 89.009 154.995C87.6052 154.587 86.9382 153.069 87.3454 151.706C87.8 150.185 89.3811 149.418 91.452 149.982ZM144.638 139.709C146.68 142.321 146.3 145.645 143.025 147.148C142.661 147.315 142.218 147.182 142.035 146.852C141.851 146.521 141.997 146.117 142.361 145.95C144.732 144.862 145.003 142.491 143.437 140.487C141.916 138.541 139.798 138.327 138.342 140.43C136.8 142.66 136.912 143.969 138.023 144.558C138.904 145.026 140.324 144.928 140.715 144.545L140.753 144.503C140.989 144.201 141.449 144.131 141.781 144.345C142.112 144.56 142.19 144.979 141.954 145.281C141.134 146.329 138.795 146.521 137.28 145.717C135.34 144.687 135.154 142.52 137.095 139.715C139.173 136.711 142.563 137.054 144.638 139.709ZM114.074 135.863C114.457 135.863 114.772 136.129 114.808 136.469L114.811 136.533C114.811 136.652 114.932 136.783 115.364 137.072L115.774 137.339C116.22 137.636 116.435 137.819 116.638 138.112C117.103 138.781 117.367 139.462 117.367 140.263C117.367 142.313 113.982 145.102 110.288 146.343C105.859 147.83 102.23 146.727 101.243 142.591C101.156 142.229 101.409 141.872 101.807 141.793C102.205 141.715 102.597 141.944 102.684 142.306C103.45 145.516 106.096 146.32 109.777 145.084C112.956 144.016 115.892 141.597 115.892 140.263C115.892 139.746 115.72 139.3 115.392 138.829L115.348 138.772C115.273 138.686 115.156 138.593 114.944 138.45L114.458 138.131C113.65 137.589 113.337 137.223 113.337 136.533C113.337 136.163 113.667 135.863 114.074 135.863ZM117.534 98.6774L117.069 98.7251C91.913 101.478 73.0414 119.789 72.0121 144.36L74.7114 142.632C82.4586 137.683 91.4512 132.029 101.689 125.672L103.684 124.575C109.64 121.305 115.334 118.228 120.77 115.341C120.671 115.183 120.643 114.988 120.71 114.802C121.09 113.746 121.441 113.036 122.085 112.326C124.099 110.102 126.859 109.016 128.814 110.412C129.006 110.55 129.103 110.757 129.096 110.964L130.832 110.062C136.301 107.229 141.476 104.612 146.36 102.208L144.452 101.714C141.623 100.99 138.104 100.13 134.598 99.4687C134.63 101.592 132.884 103.287 129.983 104.453C127.517 105.444 124.303 105.978 122.018 105.854C117.743 105.622 115.337 102.21 117.534 98.6774ZM161.662 127.813C163.466 132.298 161.978 136.377 157.473 136.35C151.055 136.312 144.788 131.212 145.801 126.644C146.253 124.606 147.937 122.803 150.865 121.903C155.54 120.466 159.826 123.247 161.662 127.813ZM151.336 123.174C148.917 123.918 147.596 125.332 147.247 126.909C146.442 130.535 151.899 134.975 157.483 135.009C160.682 135.027 161.782 132.013 160.278 128.274C158.686 124.317 155.129 122.009 151.336 123.174ZM97.1286 107.292L97.1811 107.361L97.5359 107.875C97.7097 108.135 97.8653 108.391 98.0135 108.667C99.6463 111.705 99.6041 115.687 96.841 121.216C95.5893 123.72 92.4005 127.086 89.6159 129.094C86.0601 131.659 83.4054 132.241 80.2366 131.925L79.2964 131.824L79.1817 131.815C79.1188 131.811 79.0787 131.81 79.0345 131.812L78.9701 131.814C78.921 131.816 78.904 131.814 78.9012 131.808L78.901 131.803L78.8773 131.838C78.6636 132.117 78.2482 132.209 77.9147 132.04C77.5589 131.86 77.4309 131.452 77.6288 131.128C77.8938 130.694 78.3366 130.498 78.9002 130.474C79.0495 130.467 79.2074 130.472 79.3954 130.486L79.6153 130.506L80.2234 130.573C83.1097 130.891 85.4061 130.419 88.7001 128.043C91.3157 126.156 94.3557 122.947 95.4989 120.66C98.0847 115.487 98.1224 111.923 96.6891 109.256C96.5936 109.079 96.4941 108.91 96.3862 108.741L96.2319 108.506L95.9227 108.061C95.7064 107.747 95.8107 107.333 96.1556 107.136C96.479 106.952 96.8991 107.024 97.1286 107.292ZM184.536 105.565C179.823 105.94 172.435 108.059 163.918 111.21L164.167 111.411C166.538 113.346 171.32 117.935 172.817 121.209L174.308 119.704C177.987 115.98 180.656 113.184 182.316 111.315L182.652 110.931C184.238 109.099 185.263 107.569 185.578 106.548L185.623 106.393C185.82 105.655 185.592 105.481 184.536 105.565ZM113.948 107.744C115.782 108.552 116.527 110.349 115.32 111.978C115.092 112.285 114.634 112.367 114.297 112.159C113.959 111.952 113.87 111.535 114.097 111.228C114.761 110.332 114.387 109.428 113.306 108.952C112.167 108.451 110.92 108.74 110.276 109.833C109.683 110.84 109.643 112.204 110.116 113.098C110.532 113.882 111.137 114.032 112.06 113.4C112.386 113.177 112.848 113.236 113.093 113.532C113.338 113.828 113.272 114.249 112.947 114.472C111.265 115.624 109.599 115.211 108.788 113.681C108.108 112.398 108.163 110.582 108.977 109.199C110.016 107.435 112.133 106.946 113.948 107.744ZM123.223 113.179C122.879 113.559 122.633 113.959 122.406 114.473C124.306 113.469 126.173 112.487 128.008 111.53L127.955 111.501V111.501L127.904 111.468C126.778 110.664 124.794 111.445 123.223 113.179ZM120.079 98.4722L119.434 98.5134L119.391 98.5629C116.843 101.494 117.824 103.873 121.304 104.211C123.804 104.453 130.439 102.766 131.218 102.173C131.976 101.596 132.934 100.27 133.082 99.1948C130.83 98.8095 128.627 98.5262 126.662 98.4347C124.654 98.3413 122.674 98.3436 120.727 98.4375L120.079 98.4722Z" fill="#222222"/>
<path d="M186.638 88.0868C202.251 82.8654 201.894 84.4145 187.147 89.3462C169.688 95.1847 103.786 131.768 103.786 131.768C73.8733 148.248 71.6356 145.704 100.629 129.668L102.417 128.681C102.753 128.496 135.763 109.536 159.351 99.3926C162.005 98.2511 184.861 88.6813 186.638 88.0868Z" fill="#F4F1DE"/>
<path fill-rule="evenodd" clip-rule="evenodd" d="M213.597 62.0927C208.759 61.8675 204.983 65.289 204.944 69.7656C204.911 73.5164 207.275 76.7011 210.663 77.3367C211.556 77.5042 214.13 77.5042 216.363 76.3642L216.548 76.2714C219.364 74.8205 221.279 72.0602 221.535 69.7895C221.989 65.7638 218.435 62.3178 213.597 62.0927ZM205.997 69.7733C205.997 69.7444 205.997 69.7155 205.998 69.6868C206.028 69.6779 206.058 69.6665 206.087 69.6523C209.88 67.7928 212.221 66.3758 213.156 65.3525C213.774 64.6769 214.075 63.9149 214.05 63.087C214.687 63.151 215.294 63.2783 215.863 63.4604C215.86 63.4852 215.859 63.5106 215.86 63.5364C215.906 64.7279 215.557 65.6804 214.815 66.422C213.962 67.2744 212.929 68.0854 211.755 68.8503C210.499 69.668 209.151 70.39 207.802 71.0082C207.488 71.1524 207.188 71.2839 206.907 71.4024L206.5 71.5705C206.442 71.594 206.388 71.6156 206.338 71.6352L206.217 71.6816C206.068 71.0773 205.991 70.4369 205.997 69.7733ZM206.513 72.6081C206.847 73.4496 207.33 74.1955 207.927 74.8029L208.242 74.6382C213.192 72.0301 216.265 69.9813 217.428 68.536C218.604 67.0747 219.023 65.9526 218.76 65.1896C218.754 65.1717 218.749 65.1536 218.745 65.1356C218.227 64.6406 217.611 64.2151 216.915 63.8793C216.886 65.1459 216.446 66.2156 215.594 67.0673C214.687 67.9735 213.599 68.8279 212.368 69.6297C211.064 70.4787 209.67 71.2252 208.276 71.8642C207.869 72.0505 207.487 72.2166 207.135 72.362L206.724 72.5275L206.513 72.6081ZM210.455 76.3016C209.833 76.1324 209.254 75.8548 208.733 75.4872C213.828 72.805 216.999 70.6915 218.278 69.1023C219.071 68.1164 219.578 67.2298 219.785 66.4386C220.041 66.8742 220.235 67.3386 220.36 67.8238C220.333 67.8732 220.315 67.9277 220.308 67.9857C220.18 69.106 219.546 70.218 218.385 71.3254C217.272 72.3883 214.869 73.9218 211.197 75.9044L210.455 76.3016ZM212.235 76.4567C213.366 76.3913 214.748 76.0897 215.865 75.5196C217.943 74.5055 219.611 72.5959 220.242 70.7556C219.937 71.1712 219.572 71.5817 219.148 71.9868C218.004 73.0782 215.706 74.5619 212.235 76.4567ZM206.303 68.4542L206.116 68.5469C206.713 65.3802 209.493 63.1078 212.994 63.0421C213.031 63.6643 212.819 64.2226 212.346 64.7398C211.583 65.5758 209.556 66.827 206.303 68.4542Z" fill="#00160A"/>
<path fill-rule="evenodd" clip-rule="evenodd" d="M251.612 52.9099C251.71 52.9202 251.779 53.001 251.768 53.0898C251.767 53.2206 251.675 53.2913 251.55 53.3372C251.438 53.3781 251.259 53.3625 251.155 53.3753C250.015 53.4554 249.118 52.6918 248.724 51.7076C248.345 50.7621 248.446 49.6315 249.134 48.9342C249.213 48.852 249.35 48.8438 249.44 48.9158C249.531 48.9879 250.044 49.113 249.965 49.1952C249.398 49.7976 249.014 50.163 249.549 51.5927C250.084 53.0223 251.539 52.9022 251.612 52.9099Z" fill="#E7EAEE"/>
<path fill-rule="evenodd" clip-rule="evenodd" d="M70.0432 63.1458C69.7435 62.9586 69.3338 63.0278 69.128 63.3006C68.9223 63.5733 68.9984 63.9462 69.2981 64.1334C69.6273 64.3391 69.9182 64.529 70.175 64.7055C69.8984 64.9058 69.6222 65.1352 69.3352 65.3964L68.7531 65.9344C68.4971 66.1694 68.499 66.5486 68.7572 66.7815C69.0153 67.0144 69.4321 67.0128 69.688 66.7778L70.3864 66.1354C70.6706 65.8835 70.937 65.6728 71.2049 65.4977C71.8001 66.0346 71.9813 66.4283 71.991 66.8197L71.9911 66.9201L71.9945 66.9813C72.0282 67.2834 72.3085 67.5191 72.6493 67.5191C73.0128 67.5191 73.3075 67.2509 73.3075 66.9201L73.3074 66.8023C73.2951 66.1921 73.0585 65.6117 72.4214 64.9485C72.8422 64.8344 73.3164 64.7706 73.8914 64.7432C74.2544 64.726 74.5333 64.4441 74.5144 64.1138C74.4954 63.7834 74.1857 63.5296 73.8227 63.5468C72.8244 63.5943 72.0486 63.7457 71.3575 64.0334C71.069 63.8188 70.7421 63.5935 70.3727 63.355L70.0432 63.1458Z" fill="#00160A"/>
<path fill-rule="evenodd" clip-rule="evenodd" d="M168.67 194.402L169.126 194.404C171.678 194.426 173.672 194.635 177.428 195.184C177.859 195.246 178.152 195.615 178.083 196.007C178.014 196.399 177.608 196.666 177.178 196.603L175.947 196.427C172.839 195.993 171.048 195.84 168.67 195.84C160.415 195.84 155.145 200.542 156.037 207.754C156.086 208.149 155.774 208.505 155.341 208.549C154.907 208.593 154.516 208.31 154.467 207.915C153.465 199.804 159.518 194.402 168.67 194.402ZM175.062 197.304L174.985 197.243C174.911 197.185 174.797 197.193 174.734 197.261C174.669 197.329 174.679 197.431 174.753 197.49L174.833 197.551C174.907 197.609 175.019 197.601 175.084 197.533C175.147 197.465 175.139 197.363 175.062 197.304ZM160.749 198.808C160.466 198.601 160.052 198.642 159.824 198.899C158.905 199.941 158.234 200.955 157.816 201.946C157.41 202.909 157.271 204.528 157.377 206.842L157.402 207.33C157.421 207.661 157.731 207.914 158.094 207.897C158.457 207.88 158.736 207.598 158.717 207.267C158.577 204.85 158.696 203.203 159.045 202.375C159.411 201.509 160.012 200.6 160.85 199.65C161.078 199.392 161.033 199.015 160.749 198.808ZM167.933 196.826C168.256 196.674 168.653 196.789 168.82 197.082C168.987 197.376 168.861 197.738 168.538 197.89C167.201 198.52 166.18 199.576 165.469 201.083C164.705 202.699 164.08 204.142 163.594 205.41C163.474 205.722 163.099 205.887 162.756 205.778C162.413 205.669 162.231 205.328 162.351 205.015C162.848 203.719 163.484 202.251 164.259 200.61C165.087 198.859 166.313 197.589 167.933 196.826ZM171.759 196.794C171.52 196.546 171.104 196.521 170.831 196.739C169.732 197.615 168.888 198.411 168.297 199.134C167.71 199.851 167.024 200.924 166.229 202.36C166.065 202.655 166.195 203.015 166.52 203.164C166.845 203.313 167.24 203.194 167.404 202.899C168.168 201.52 168.82 200.501 169.353 199.849C169.882 199.202 170.664 198.464 171.698 197.64C171.971 197.422 171.999 197.043 171.759 196.794ZM169.356 203.559C169.083 203.777 168.667 203.752 168.427 203.503C168.188 203.254 168.215 202.876 168.489 202.658C169.523 201.833 170.305 201.095 170.834 200.449C171.367 199.797 172.019 198.778 172.783 197.399C172.946 197.103 173.342 196.985 173.667 197.134C173.991 197.283 174.122 197.643 173.958 197.938C173.163 199.373 172.476 200.446 171.89 201.164C171.299 201.886 170.455 202.683 169.356 203.559ZM164.373 197.314C164.074 197.126 163.664 197.195 163.457 197.467C161.986 199.406 161.046 200.855 160.63 201.84C160.213 202.827 159.925 204.159 159.758 205.842C159.725 206.171 159.992 206.463 160.355 206.492C160.717 206.522 161.037 206.279 161.069 205.95C161.226 204.368 161.492 203.138 161.859 202.269C162.201 201.459 162.999 200.209 164.245 198.54L164.54 198.148C164.747 197.875 164.672 197.502 164.373 197.314Z" fill="#00160A"/>
<path fill-rule="evenodd" clip-rule="evenodd" d="M151.877 193.782L152.331 194.699L153.365 194.969C153.421 194.984 153.453 195.037 153.437 195.088C153.432 195.103 153.423 195.118 153.41 195.129L152.625 195.841L152.669 196.865C152.671 196.918 152.626 196.963 152.568 196.965C152.548 196.965 152.528 196.961 152.511 196.952L151.622 196.491C151.594 196.477 151.561 196.475 151.531 196.485L150.58 196.829C150.526 196.849 150.465 196.825 150.443 196.776C150.436 196.759 150.434 196.741 150.437 196.723L150.638 195.714L149.968 194.91C149.933 194.868 149.942 194.808 149.989 194.776C150.003 194.766 150.02 194.76 150.038 194.757L151.103 194.621L151.692 193.77C151.723 193.725 151.788 193.712 151.838 193.74C151.855 193.75 151.869 193.765 151.877 193.782Z" fill="#00160A"/>
<path fill-rule="evenodd" clip-rule="evenodd" d="M188.503 65.3617C188.746 65.5572 189.048 65.9097 189.315 66.2913L189.658 66.1524L190.065 65.994C190.146 65.9601 190.199 65.9335 190.215 65.9119C190.262 65.8326 190.37 65.8024 190.458 65.8445C190.544 65.8865 190.578 65.9849 190.532 66.064C190.499 66.1393 190.271 66.3753 189.848 66.6062C189.771 66.648 189.686 66.6869 189.595 66.7249C189.751 66.9908 189.874 67.2478 189.932 67.4539C190.019 67.7577 189.949 67.9731 189.835 68.0487C189.722 68.1236 189.44 68.1375 189.012 67.8134C188.932 67.7587 188.92 67.6565 188.98 67.5855C189.04 67.5147 189.152 67.5016 189.231 67.5563C189.312 67.6111 189.395 67.6422 189.461 67.6646L189.429 67.5483C189.416 67.5067 189.4 67.4633 189.379 67.421C189.302 67.268 189.204 67.0933 189.094 66.9139C188.759 67.0292 188.377 67.1337 187.965 67.1841C187.764 67.2087 187.559 67.2135 187.346 67.2119C187.224 67.2192 187.118 67.1347 187.11 67.0231C187.102 66.9118 187.195 66.8153 187.317 66.808C187.813 66.7645 188.271 66.6505 188.676 66.5222L188.809 66.4788C188.59 66.1672 188.355 65.8843 188.154 65.7245C188.045 65.6368 188.034 65.4842 188.13 65.3841C188.227 65.2837 188.394 65.2737 188.503 65.3617Z" fill="#00160A"/>
<path fill-rule="evenodd" clip-rule="evenodd" d="M43.5482 146.436C42.8654 146.473 41.7832 146.628 40.9 146.946C40.1445 147.219 40.1971 154.746 42.7908 155.36C45.371 156.164 48.1789 155.133 47.8146 151.103C47.808 151.019 47.7323 150.79 47.6455 150.527C47.5185 150.141 47.3677 149.684 47.3753 149.506C47.4058 148.873 47.2216 148.339 46.7427 148.002C46.2224 146.997 45.2118 146.346 43.5482 146.436ZM43.2258 153.529C41.956 152.651 41.9721 148.588 43.4124 148.325C44.3144 148.966 45.14 149.889 45.4288 151.66C45.1263 152.633 44.4774 153.194 43.91 153.684C43.8493 153.736 43.7895 153.788 43.7312 153.839C43.5676 153.753 43.399 153.648 43.2258 153.529Z" fill="white"/>
<path fill-rule="evenodd" clip-rule="evenodd" d="M41.6706 151.148C41.5511 150.514 41.6246 149.805 41.9655 149.05C42.1201 148.708 42.5309 148.431 43.0459 148.246C43.648 148.03 44.3857 147.925 44.8511 147.9C45.985 147.839 46.6735 148.279 47.0279 148.959C47.3541 149.187 47.4795 149.549 47.4585 149.977C47.4496 150.181 47.7464 150.918 47.7574 151.059C48.0044 153.787 46.0902 154.486 44.3319 153.942C43.6674 154.25 43.0248 154.298 42.5386 153.965C42.1024 153.667 41.7649 153.042 41.6809 151.942C41.6585 151.659 41.6551 151.394 41.6706 151.148ZM44.7717 149.371C43.7713 149.547 43.748 152.214 44.6266 152.788C44.7465 152.865 44.8632 152.934 44.9764 152.99C45.3968 152.641 45.7101 152.358 45.8849 151.777C46.0597 151.196 45.3957 149.79 44.7717 149.371Z" fill="#FFB61D"/>
<path fill-rule="evenodd" clip-rule="evenodd" d="M110.78 217.629C110.481 217.441 110.071 217.511 109.865 217.783C109.659 218.056 109.736 218.429 110.035 218.616C110.364 218.822 110.655 219.012 110.912 219.188C110.636 219.389 110.359 219.618 110.072 219.879L109.49 220.417C109.234 220.652 109.236 221.031 109.494 221.264C109.753 221.497 110.169 221.496 110.425 221.261L111.124 220.618C111.408 220.366 111.674 220.156 111.942 219.98C112.537 220.517 112.719 220.911 112.728 221.302L112.728 221.403L112.732 221.464C112.765 221.766 113.046 222.002 113.386 222.002C113.75 222.002 114.045 221.734 114.045 221.403L114.045 221.285C114.032 220.675 113.796 220.094 113.159 219.431C113.579 219.317 114.054 219.253 114.629 219.226C114.992 219.209 115.271 218.927 115.252 218.597C115.233 218.266 114.923 218.012 114.56 218.03C113.562 218.077 112.786 218.228 112.095 218.516C111.806 218.302 111.479 218.076 111.11 217.838L110.78 217.629Z" fill="#00160A"/>
<path fill-rule="evenodd" clip-rule="evenodd" d="M110.78 217.629C110.481 217.441 110.071 217.511 109.865 217.783C109.659 218.056 109.736 218.429 110.035 218.616C110.364 218.822 110.655 219.012 110.912 219.188C110.636 219.389 110.359 219.618 110.072 219.879L109.49 220.417C109.234 220.652 109.236 221.031 109.494 221.264C109.753 221.497 110.169 221.496 110.425 221.261L111.124 220.618C111.408 220.366 111.674 220.156 111.942 219.98C112.537 220.517 112.719 220.911 112.728 221.302L112.728 221.403L112.732 221.464C112.765 221.766 113.046 222.002 113.386 222.002C113.75 222.002 114.045 221.734 114.045 221.403L114.045 221.285C114.032 220.675 113.796 220.094 113.159 219.431C113.579 219.317 114.054 219.253 114.629 219.226C114.992 219.209 115.271 218.927 115.252 218.597C115.233 218.266 114.923 218.012 114.56 218.03C113.562 218.077 112.786 218.228 112.095 218.516C111.806 218.302 111.479 218.076 111.11 217.838L110.78 217.629Z" fill="#00160A"/>
<path fill-rule="evenodd" clip-rule="evenodd" d="M133.276 201.218L133.729 202.135L134.763 202.406C134.819 202.42 134.852 202.473 134.836 202.524C134.831 202.54 134.821 202.554 134.809 202.566L134.023 203.277L134.067 204.301C134.069 204.354 134.024 204.399 133.966 204.401C133.946 204.402 133.927 204.397 133.91 204.389L133.02 203.928C132.993 203.913 132.959 203.911 132.929 203.922L131.978 204.266C131.924 204.285 131.863 204.261 131.841 204.212C131.834 204.195 131.832 204.177 131.836 204.159L132.036 203.151L131.367 202.347C131.332 202.304 131.341 202.244 131.387 202.212C131.402 202.202 131.418 202.196 131.436 202.194L132.501 202.057L133.091 201.206C133.122 201.162 133.187 201.148 133.236 201.176C133.254 201.187 133.267 201.201 133.276 201.218Z" fill="#00160A"/>
<path fill-rule="evenodd" clip-rule="evenodd" d="M76.213 194.915L76.984 195.636L78.0571 195.568C78.1151 195.564 78.1654 195.604 78.1694 195.657C78.1707 195.673 78.1674 195.69 78.1597 195.704L77.689 196.618L78.1153 197.566C78.1373 197.615 78.1115 197.671 78.0577 197.691C78.0395 197.698 78.0195 197.7 78.0001 197.697L76.9912 197.541C76.9597 197.536 76.9274 197.544 76.9035 197.564L76.1389 198.183C76.0955 198.218 76.0289 198.215 75.9902 198.175C75.9771 198.162 75.9684 198.145 75.9651 198.128L75.7742 197.117L74.8432 196.57C74.7943 196.541 74.7803 196.482 74.8119 196.437C74.8216 196.424 74.835 196.412 74.8508 196.405L75.8005 195.945L76.0346 194.962C76.0469 194.91 76.103 194.877 76.1598 194.889C76.1801 194.893 76.1986 194.902 76.213 194.915Z" fill="#00160A"/>
<path fill-rule="evenodd" clip-rule="evenodd" d="M64.1739 129.227L64.6275 130.144L65.6615 130.415C65.7174 130.429 65.7497 130.482 65.7336 130.533C65.7287 130.549 65.7194 130.563 65.7067 130.575L64.9211 131.286L64.9652 132.311C64.9674 132.363 64.9222 132.408 64.864 132.41C64.8444 132.411 64.8249 132.406 64.8078 132.398L63.9185 131.937C63.8907 131.922 63.8572 131.92 63.8275 131.931L62.8763 132.275C62.8222 132.294 62.761 132.27 62.7395 132.221C62.7323 132.204 62.7303 132.186 62.7338 132.169L62.934 131.16L62.2649 130.356C62.2298 130.313 62.2389 130.253 62.2853 130.221C62.2996 130.211 62.3164 130.205 62.3342 130.203L63.3994 130.066L63.9888 129.215C64.0198 129.171 64.0849 129.157 64.1341 129.185C64.1516 129.196 64.1654 129.21 64.1739 129.227Z" fill="#00160A"/>
<path fill-rule="evenodd" clip-rule="evenodd" d="M64.0685 130.141L64.2612 130.53L64.7004 130.645C64.7241 130.651 64.7378 130.674 64.731 130.696C64.7289 130.702 64.725 130.708 64.7196 130.713L64.3859 131.015L64.4046 131.451C64.4055 131.473 64.3863 131.492 64.3616 131.493C64.3533 131.493 64.345 131.491 64.3377 131.487L63.96 131.292C63.9482 131.286 63.934 131.285 63.9213 131.289L63.5173 131.435C63.4943 131.444 63.4683 131.433 63.4592 131.412C63.4561 131.405 63.4553 131.398 63.4568 131.39L63.5418 130.962L63.2576 130.62C63.2427 130.602 63.2466 130.577 63.2663 130.563C63.2723 130.559 63.2795 130.556 63.287 130.555L63.7395 130.497L63.9899 130.136C64.003 130.117 64.0307 130.111 64.0516 130.123C64.059 130.127 64.0649 130.134 64.0685 130.141Z" fill="#E7EAEE"/>
<path fill-rule="evenodd" clip-rule="evenodd" d="M10.2535 169.473L10.707 170.39L11.741 170.66C11.7969 170.674 11.8292 170.728 11.8132 170.778C11.8082 170.794 11.799 170.808 11.7863 170.82L11.0007 171.532L11.0447 172.556C11.047 172.609 11.0017 172.653 10.9436 172.655C10.9239 172.656 10.9044 172.652 10.8873 172.643L9.99798 172.182C9.97019 172.168 9.93671 172.165 9.90699 172.176L8.9558 172.52C8.90174 172.539 8.84052 172.515 8.81905 172.466C8.81179 172.45 8.80979 172.431 8.81329 172.414L9.0135 171.405L8.34441 170.601C8.30931 170.559 8.31844 170.499 8.36481 170.467C8.37911 170.457 8.39594 170.45 8.4137 170.448L9.4789 170.312L10.0683 169.461C10.0994 169.416 10.1644 169.403 10.2136 169.431C10.2311 169.441 10.245 169.455 10.2535 169.473Z" fill="#00160A"/>
<path fill-rule="evenodd" clip-rule="evenodd" d="M55.8259 87.106L56.1554 87.3152C56.5251 87.5539 57.9054 88.7378 58.1941 88.9526C58.8843 88.6644 59.6602 88.5129 60.6586 88.4654C61.0216 88.4482 61.3313 88.702 61.3502 89.0324C61.3692 89.3627 61.0903 89.6446 60.7273 89.6618C60.152 89.6892 59.6778 89.7531 59.2568 89.8672C59.8945 90.5307 60.131 91.1109 60.1432 91.7209L60.1433 91.8387C60.1433 92.1695 59.8487 92.4377 59.4851 92.4377C59.1443 92.4377 58.864 92.202 58.8303 91.9L58.8269 91.8387L58.8269 91.7383C58.8172 91.347 58.636 90.9532 58.0409 90.4164C57.7729 90.5914 57.5065 90.8021 57.2223 91.054L56.5239 91.6964C56.2679 91.9314 55.8512 91.933 55.593 91.7001C55.3348 91.4672 55.333 91.088 55.5889 90.853L56.171 90.315C56.458 90.0538 56.7342 89.8244 57.0108 89.6242C56.5251 88.6152 54.705 87.5335 54.9107 87.2608C55.1165 86.988 55.5262 86.9188 55.8259 87.106Z" fill="#00160A"/>
<path fill-rule="evenodd" clip-rule="evenodd" d="M182.821 156.189L183.718 156.777L184.762 156.54C184.818 156.527 184.875 156.559 184.89 156.61C184.894 156.626 184.894 156.642 184.889 156.658L184.6 157.632L185.201 158.499C185.232 158.544 185.217 158.603 185.168 158.631C185.151 158.641 185.132 158.646 185.112 158.646L184.089 158.651C184.057 158.652 184.026 158.665 184.007 158.688L183.372 159.418C183.336 159.46 183.269 159.467 183.224 159.434C183.208 159.423 183.197 159.408 183.19 159.391L182.809 158.427L181.788 158.035C181.734 158.014 181.709 157.958 181.732 157.909C181.739 157.894 181.75 157.881 181.764 157.871L182.612 157.268L182.654 156.263C182.657 156.21 182.706 156.169 182.764 156.171C182.785 156.171 182.804 156.178 182.821 156.189Z" fill="#00160A"/>
<path fill-rule="evenodd" clip-rule="evenodd" d="M193.123 118.647L193.394 119.622L194.361 120.051C194.413 120.074 194.435 120.132 194.409 120.179C194.401 120.194 194.39 120.206 194.375 120.216L193.465 120.793L193.313 121.808C193.306 121.861 193.252 121.897 193.195 121.89C193.175 121.888 193.157 121.88 193.142 121.869L192.354 121.275C192.329 121.256 192.297 121.249 192.265 121.254L191.263 121.443C191.206 121.453 191.15 121.42 191.139 121.368C191.135 121.351 191.136 121.333 191.143 121.316L191.533 120.354L191.027 119.456C191.001 119.409 191.021 119.351 191.073 119.327C191.089 119.32 191.107 119.316 191.125 119.317L192.2 119.351L192.942 118.606C192.982 118.567 193.048 118.564 193.091 118.599C193.107 118.612 193.117 118.628 193.123 118.647Z" fill="#00160A"/>
<path fill-rule="evenodd" clip-rule="evenodd" d="M169.664 79.4058L169.936 80.3808L170.902 80.8102C170.955 80.8334 170.976 80.8908 170.951 80.9383C170.943 80.953 170.931 80.9656 170.916 80.9749L170.007 81.5517L169.855 82.5673C169.847 82.6197 169.794 82.6565 169.736 82.6493C169.717 82.6469 169.698 82.6396 169.683 82.6281L168.895 82.0337C168.871 82.0151 168.838 82.0077 168.807 82.0136L167.804 82.2019C167.748 82.2126 167.692 82.1792 167.68 82.1274C167.676 82.1098 167.678 82.0916 167.684 82.0748L168.074 81.1131L167.569 80.2153C167.542 80.1682 167.563 80.1105 167.614 80.0863C167.63 80.0789 167.648 80.0753 167.666 80.0758L168.741 80.1098L169.484 79.3649C169.523 79.3257 169.59 79.3228 169.633 79.3584C169.648 79.371 169.659 79.3875 169.664 79.4058Z" fill="#00160A"/>
<path fill-rule="evenodd" clip-rule="evenodd" d="M238.967 88.9593L239.367 88.9269C239.819 88.8934 240.229 88.8748 240.602 88.8705C240.927 88.2459 241.414 87.676 242.146 87.0556C242.411 86.8301 242.828 86.8434 243.076 87.0853C243.324 87.3273 243.309 87.7064 243.043 87.9319C242.622 88.2894 242.304 88.6158 242.062 88.9494C243.019 89.0847 243.61 89.3908 244.05 89.8509L244.133 89.9411C244.367 90.1945 244.331 90.5724 244.052 90.785C243.791 90.9844 243.41 90.9678 243.171 90.7561L243.125 90.7112L243.054 90.6343C242.77 90.3402 242.353 90.1445 241.518 90.0814C241.437 90.3722 241.381 90.6895 241.341 91.0487L241.26 91.9494C241.23 92.2791 240.912 92.5241 240.55 92.4968C240.188 92.4694 239.918 92.1799 239.948 91.8502L240.014 91.0976C240.05 90.7296 240.099 90.3923 240.17 90.0771C239.849 90.092 239.492 90.1168 239.094 90.1518C238.732 90.1836 238.41 89.9425 238.375 89.6132C238.34 89.284 238.605 88.9912 238.967 88.9593Z" fill="#00160A"/>
<path fill-rule="evenodd" clip-rule="evenodd" d="M185.816 130.309C185.697 130.583 185.437 130.962 185.134 131.321L185.395 131.567L185.697 131.86L185.765 131.919C185.794 131.942 185.817 131.957 185.834 131.961C185.932 131.974 186 132.056 185.986 132.145C185.972 132.233 185.883 132.296 185.785 132.283C185.696 132.282 185.374 132.167 184.991 131.884C184.922 131.833 184.852 131.773 184.782 131.708C184.561 131.933 184.338 132.126 184.144 132.246C183.86 132.424 183.614 132.438 183.497 132.366C183.381 132.296 183.271 132.059 183.459 131.582C183.488 131.495 183.589 131.45 183.683 131.477C183.777 131.504 183.828 131.595 183.799 131.681C183.77 131.77 183.766 131.851 183.766 131.915L183.875 131.848C183.914 131.823 183.953 131.795 183.989 131.761C184.121 131.643 184.268 131.5 184.416 131.345C184.182 131.097 183.943 130.807 183.75 130.471C183.656 130.308 183.581 130.134 183.51 129.952C183.461 129.85 183.512 129.73 183.624 129.685C183.736 129.64 183.868 129.687 183.917 129.789C184.132 130.198 184.406 130.551 184.677 130.853L184.767 130.952C185.014 130.658 185.226 130.361 185.322 130.134C185.376 130.011 185.529 129.949 185.665 129.997C185.802 130.046 185.87 130.185 185.816 130.309Z" fill="#E7EAEE"/>
<path fill-rule="evenodd" clip-rule="evenodd" d="M179.39 8.22957C179.791 8.16599 180.173 8.41036 180.243 8.77539C180.312 9.14041 180.044 9.48786 179.643 9.55144C177.735 9.85384 175.439 10.8916 173.456 12.563C170.88 14.7334 168.98 17.7966 168.042 21.7951C167.287 25.0166 167.981 29.2581 169.956 32.7968C172.203 36.8228 175.816 39.56 180.451 40.3305C185.21 41.1215 189.236 40.6303 193.732 39.1755L194.146 39.0387C194.277 38.9935 194.511 38.9113 194.805 38.8081L194.807 38.8076L194.807 38.8076C195.89 38.4273 197.782 37.7631 198.325 37.6136C199.778 37.2135 200.77 37.247 201.489 37.9444C201.768 38.2145 201.753 38.6391 201.456 38.8927C201.178 39.1304 200.75 39.1334 200.468 38.9102L200.414 38.8625C200.202 38.6568 199.763 38.633 198.881 38.8633L198.751 38.898C198.273 39.0298 196.52 39.6447 195.428 40.028C195.005 40.1766 194.68 40.2903 194.568 40.3278C189.711 41.9411 185.353 42.5093 180.186 41.6505C175.066 40.7994 171.086 37.7831 168.642 33.4045C166.518 29.599 165.772 25.0457 166.6 21.515C167.601 17.2474 169.654 13.9378 172.454 11.5785C174.646 9.73166 177.201 8.57648 179.39 8.22957ZM184.376 11.4707C184.775 11.3995 185.162 11.6365 185.241 12.0001C185.319 12.3637 185.058 12.7162 184.659 12.7874C178.684 13.8523 173.879 18.0055 172.485 23.499C172.014 25.3582 172.156 26.8699 172.619 27.4467L172.681 27.519L172.685 27.529L172.694 27.5229C172.86 27.3868 173.054 27.0391 173.204 26.5L173.235 26.3816C174.669 20.7317 179.402 16.3583 185.447 14.8896C185.841 14.794 186.245 15.0068 186.35 15.3648C186.455 15.7228 186.221 16.0904 185.828 16.186C180.381 17.5092 176.102 21.4118 174.728 26.4691L174.672 26.6834C174.166 28.6761 172.715 29.6273 171.539 28.366C170.679 27.4434 170.468 25.4858 171.049 23.1971C172.574 17.1833 177.835 12.6364 184.376 11.4707ZM193.242 18.8344C193.213 18.4648 192.86 18.1866 192.454 18.213C185.279 18.6788 178.987 22.9198 176.483 29.1794C175.533 31.5546 175.477 33.6669 176.254 34.7441C177.298 36.189 178.939 35.3694 179.757 33.3235L179.843 33.1136C182.057 27.8162 187.245 24.1163 193.318 23.3448C193.721 23.2936 194.003 22.9546 193.946 22.5876C193.89 22.2206 193.518 21.9647 193.114 22.0159C186.426 22.8656 180.723 26.9838 178.371 32.8646L178.32 32.9902C178.058 33.6023 177.772 33.9713 177.555 34.0796L177.545 34.0855L177.541 34.0886C177.539 34.09 177.538 34.0908 177.538 34.0907C177.537 34.0905 177.536 34.0887 177.534 34.0842C177.529 34.0743 177.519 34.0517 177.487 34.0073L177.448 33.9489C177.02 33.2586 177.085 31.5978 177.869 29.6383C180.171 23.8806 185.959 19.9798 192.559 19.5513C192.965 19.525 193.271 19.204 193.242 18.8344ZM196.452 25.3564C196.859 25.33 197.211 25.6082 197.24 25.9778C197.269 26.3474 196.963 26.6684 196.557 26.6947C191.93 26.9952 187.872 29.73 186.258 33.7669C185.779 34.9636 185.69 35.9867 185.861 36.5048L185.882 36.5627L185.915 36.5199C185.997 36.4062 186.09 36.243 186.181 36.0314L186.22 35.9378C187.925 31.6737 192.06 28.6876 196.91 28.0715C197.313 28.0203 197.685 28.2762 197.742 28.6432C197.798 29.0102 197.517 29.3492 197.113 29.4004C192.871 29.9393 189.245 32.516 187.683 36.208L187.605 36.3967C186.973 37.9779 185.605 38.661 184.731 37.4502C184.132 36.6205 184.174 35.0542 184.872 33.308C186.687 28.7693 191.25 25.6941 196.452 25.3564ZM200.338 30.7618C200.309 30.3922 199.956 30.1139 199.55 30.1403C196.066 30.3665 193.01 32.426 191.795 35.4656C191.315 36.664 191.286 37.7546 191.73 38.3687C192.456 39.3755 193.586 38.8114 194.056 37.6349L194.121 37.4804C195.111 35.1786 197.38 33.5738 200.034 33.2367C200.437 33.1855 200.718 32.8465 200.662 32.4796C200.606 32.1126 200.233 31.8566 199.83 31.9079L199.643 31.9334C196.787 32.3521 194.322 34.0021 193.045 36.3766L193 36.4611L193.027 36.3649C193.068 36.2247 193.119 36.0773 193.18 35.9245C194.195 33.3868 196.746 31.6676 199.655 31.4787C200.061 31.4523 200.367 31.1313 200.338 30.7618Z" fill="#00160A"/>
<path fill-rule="evenodd" clip-rule="evenodd" d="M196.452 25.3563C196.859 25.33 197.211 25.6082 197.24 25.9778C197.269 26.3473 196.963 26.6683 196.557 26.6947C191.93 26.9951 187.872 29.73 186.258 33.7669C185.779 34.9635 185.69 35.9866 185.861 36.5048L185.882 36.5626L185.915 36.5198C185.997 36.4062 186.09 36.243 186.181 36.0314L186.22 35.9377C187.925 31.6737 192.06 28.6875 196.91 28.0715C197.313 28.0203 197.685 28.2762 197.742 28.6432C197.798 29.0101 197.517 29.3491 197.113 29.4004C192.871 29.9393 189.245 32.516 187.683 36.208L187.605 36.3966C186.973 37.9779 185.605 38.661 184.731 37.4502C184.132 36.6205 184.174 35.0542 184.872 33.3079C186.687 28.7692 191.25 25.6941 196.452 25.3563Z" fill="#00160A"/>
<path d="M150.541 112.704C165.996 106.125 178.918 102.65 186.963 102.012C189.426 101.817 190.544 103.053 189.92 105.063C189.456 106.556 188.046 108.605 185.883 111.031C182.114 115.261 177.143 118.88 172.194 122.246C180.112 115.594 182.132 112.812 184.574 110.072L184.958 109.636C186.768 107.553 187.939 105.812 188.299 104.65L188.351 104.474C188.575 103.635 188.315 103.437 187.109 103.532C179.246 104.156 166.374 107.638 150.975 114.208C135.552 120.789 135.111 119.272 150.541 112.704Z" fill="white"/>
<path d="M79.8567 91.4219L79.9697 91.6666C80.7526 93.3562 81.5662 95.0293 82.4896 96.8541L82.8487 97.562C82.731 97.634 82.5762 97.7104 82.406 97.7781C82.1616 97.8752 81.9135 97.9434 81.727 97.9662L81.6675 97.9716L81.5778 97.8737C80.8799 97.0918 80.07 95.7633 79.4847 94.4422C79.1729 93.7386 78.9509 93.0932 78.8508 92.5974C78.81 92.3953 78.7912 92.2257 78.7928 92.0969L78.7971 92.012C78.7985 91.9914 78.7986 91.9807 78.793 91.9792L78.815 91.9656C78.9397 91.8874 79.2581 91.7179 79.731 91.4839L79.8567 91.4219Z" fill="white"/>
<path fill-rule="evenodd" clip-rule="evenodd" d="M99.3941 85.3016C99.8779 84.7627 100.505 84.8431 101.3 85.2816L101.504 85.3989L102.075 85.7433C102.235 85.8365 102.304 85.8687 102.397 85.9025C102.613 85.9808 102.719 86.2037 102.633 86.4004C102.546 86.5972 102.301 86.6931 102.085 86.6148L102.008 86.586C101.862 86.529 101.752 86.4699 101.456 86.2912L101.046 86.0427C100.979 86.0026 100.92 85.969 100.863 85.9372C100.388 85.6749 100.172 85.6473 100.047 85.7867C99.9677 85.8746 99.9871 86.0619 100.144 86.446L100.316 86.8489C100.657 87.6743 100.659 88.0433 100.051 88.3583C99.5267 88.6295 99.2581 88.5028 98.5056 87.8318L98.323 87.6673C97.8411 87.2293 97.5885 87.0769 97.4258 87.1082C97.3717 87.1186 97.3087 87.1535 97.2317 87.2281C97.1415 87.3157 97.1159 87.5958 97.1712 88.0927L97.2561 88.7416C97.3551 89.5348 97.3152 89.7403 96.9554 89.9594C96.4599 90.2612 95.8006 89.9201 94.5786 88.9214C94.4055 88.7799 94.3912 88.5375 94.5466 88.38C94.7021 88.2225 94.9684 88.2095 95.1415 88.3509C95.6639 88.7779 96.0584 89.0559 96.3339 89.1985L96.3957 89.2291L96.4472 89.2525L96.4484 89.2045L96.4451 89.0897C96.4397 88.9956 96.4268 88.8818 96.4011 88.6886L96.3474 88.2904C96.2449 87.4828 96.2769 87.0337 96.6172 86.7036C96.8062 86.5202 97.0184 86.4029 97.2514 86.3581C97.7926 86.2539 98.177 86.4643 98.8154 87.0321L99.1376 87.3206C99.485 87.6247 99.6139 87.7024 99.6342 87.6919C99.7131 87.651 99.7011 87.524 99.4878 87.0253L99.3942 86.8093C99.0966 86.1132 99.0398 85.6963 99.3941 85.3016Z" fill="#00160A"/>
<path fill-rule="evenodd" clip-rule="evenodd" d="M145.383 22.9027L144.983 22.9352C144.621 22.967 144.356 23.2598 144.391 23.5891C144.412 23.7881 144.538 23.955 144.714 24.0488L144.645 24.0938C144.348 24.2847 144.278 24.6585 144.487 24.9287C144.697 25.1988 145.108 25.263 145.405 25.0721L146.081 24.6361C146.061 24.7771 146.045 24.9227 146.03 25.0734L145.964 25.8261C145.934 26.1558 146.203 26.4452 146.566 26.4726C146.928 26.5 147.246 26.2549 147.276 25.9252L147.357 25.0245C147.379 24.8318 147.405 24.6511 147.436 24.4801C147.668 24.8792 147.714 25.1866 147.665 25.4773L147.646 25.5762L147.637 25.637C147.613 25.9398 147.844 26.2162 148.18 26.2701C148.538 26.3275 148.879 26.11 148.942 25.7842L148.965 25.6682C149.035 25.264 149.003 24.857 148.823 24.4053C148.917 24.4668 148.998 24.5353 149.07 24.6101L149.141 24.687L149.187 24.7319C149.426 24.9436 149.807 24.9602 150.068 24.7608C150.347 24.5482 150.383 24.1704 150.149 23.9169L150.066 23.8268C150.036 23.7959 150.006 23.7657 149.975 23.7362C150.319 23.7544 150.624 23.5266 150.666 23.2112C150.711 22.8829 150.454 22.584 150.093 22.5436C149.473 22.4742 148.93 22.4585 148.431 22.4993C148.61 22.3075 148.817 22.1128 149.059 21.9078C149.325 21.6822 149.34 21.3032 149.092 21.0612C148.844 20.8192 148.427 20.8059 148.161 21.0315C147.715 21.4099 147.36 21.7695 147.077 22.1342C146.968 22.0287 146.853 21.9205 146.732 21.8095L146.448 21.5514C146.188 21.3196 145.772 21.3231 145.517 21.5592C145.262 21.7952 145.266 22.1745 145.525 22.4063C145.706 22.5672 145.872 22.7195 146.025 22.8638C145.821 22.8732 145.607 22.8861 145.383 22.9027Z" fill="#00160A"/>
<path fill-rule="evenodd" clip-rule="evenodd" d="M120.047 27.0464C119.893 26.8998 119.641 26.9074 119.483 27.0633C119.325 27.2191 119.321 27.4643 119.474 27.6109C119.618 27.748 119.746 27.8754 119.861 27.9941C119.608 28.0969 119.353 28.229 119.08 28.3915L118.665 28.6423C118.483 28.7517 118.44 28.9661 118.569 29.1213C118.698 29.2765 118.951 29.3136 119.133 29.2043L119.63 28.9051C119.889 28.7548 120.123 28.6407 120.358 28.5596C120.701 29.0088 120.769 29.2989 120.72 29.5693L120.707 29.6334L120.701 29.6729C120.681 29.869 120.817 30.0448 121.019 30.0753C121.235 30.1079 121.445 29.9629 121.489 29.7514L121.504 29.6761C121.578 29.2836 121.513 28.8901 121.219 28.4067C121.427 28.4005 121.654 28.4117 121.911 28.4388C122.132 28.4623 122.334 28.3285 122.361 28.1401C122.387 27.9517 122.23 27.78 122.008 27.7566C121.519 27.7049 121.109 27.7041 120.733 27.7572C120.585 27.5867 120.413 27.4049 120.215 27.2096L120.047 27.0464Z" fill="#E7EAEE"/>
<path fill-rule="evenodd" clip-rule="evenodd" d="M35.1928 126.914L35.6464 127.831L36.6804 128.102C36.7363 128.116 36.7686 128.169 36.7525 128.22C36.7476 128.236 36.7383 128.25 36.7256 128.262L35.94 128.973L35.984 129.998C35.9863 130.05 35.941 130.095 35.8829 130.097C35.8633 130.098 35.8438 130.093 35.8267 130.085L34.9373 129.624C34.9096 129.609 34.8761 129.607 34.8463 129.618L33.8952 129.962C33.8411 129.981 33.7799 129.957 33.7584 129.908C33.7511 129.891 33.7492 129.873 33.7526 129.856L33.9529 128.847L33.2838 128.043C33.2487 128 33.2578 127.94 33.3042 127.908C33.3185 127.898 33.3353 127.892 33.3531 127.89L34.4183 127.753L35.0077 126.902C35.0387 126.858 35.1037 126.844 35.153 126.872C35.1705 126.882 35.1843 126.897 35.1928 126.914Z" fill="#00160A"/>
<path fill-rule="evenodd" clip-rule="evenodd" d="M41.2408 76.0022L41.6944 76.9195L42.7284 77.1895C42.7843 77.2041 42.8166 77.2572 42.8005 77.3081C42.7956 77.3238 42.7863 77.3381 42.7736 77.3496L41.988 78.0613L42.032 79.0855C42.0343 79.1384 41.9891 79.183 41.9309 79.185C41.9113 79.1857 41.8918 79.1814 41.8747 79.1725L40.9853 78.7116C40.9576 78.6972 40.9241 78.6951 40.8944 78.7058L39.9432 79.0496C39.8891 79.0692 39.8279 79.0451 39.8064 78.9959C39.7992 78.9793 39.7972 78.9611 39.8007 78.9435L40.0009 77.9348L39.3318 77.1305C39.2967 77.0883 39.3058 77.0282 39.3522 76.9963C39.3665 76.9864 39.3833 76.9801 39.4011 76.9778L40.4663 76.8413L41.0557 75.9904C41.0867 75.9456 41.1518 75.9322 41.201 75.9604C41.2185 75.9705 41.2323 75.985 41.2408 76.0022Z" fill="#00160A"/>
<path d="M54.9405 157.06C55.2784 156.837 55.7511 156.905 55.9965 157.212C56.2418 157.52 45.5462 165.448 41.3971 169.081L40.9149 169.507C38.545 171.617 36.7977 173.444 35.8128 174.889C34.7692 176.42 34.7022 177.251 35.376 177.591C37.9324 178.88 41.6079 179.508 46.8719 178.715L47.4128 178.631C49.4166 178.311 64.4895 175.32 64.2508 175.399L64.1581 175.425C63.6829 175.539 57.5455 177.471 55.4272 177.961L55.1711 178.02C51.9328 178.762 49.3987 179.27 47.119 179.614C41.5485 180.453 37.5685 180.27 34.6431 178.794C32.955 177.943 33.0894 176.274 34.528 174.164C35.6595 172.504 37.6498 170.453 40.3488 168.09C44.5533 164.408 50.4672 160.016 54.9405 157.06Z" fill="white"/>
</svg>